<svg width="643" height="448" viewBox="0 0 643 448" fill="none" xmlns="http://www.w3.org/2000/svg">
    <g clip-path="url(#clip0_908_231)">
        <path
            d="M613.072 87.0635H29.9281C21.9934 87.0545 14.3863 83.8985 8.77563 78.2878C3.16498 72.6772 0.00896191 65.0701 0 57.1354V29.9281C0.00896191 21.9934 3.16498 14.3863 8.77563 8.77563C14.3863 3.16497 21.9934 0.00896456 29.9281 0H613.072C621.007 0.00896192 628.614 3.16496 634.224 8.77562C639.835 14.3863 642.991 21.9934 643 29.9281V57.1354C642.991 65.0701 639.835 72.6772 634.224 78.2878C628.614 83.8985 621.007 87.0545 613.072 87.0635ZM29.9281 1.81381C22.4743 1.82226 15.3282 4.78702 10.0576 10.0576C4.787 15.3282 1.82226 22.4743 1.81381 29.9281V57.1354C1.82226 64.5892 4.787 71.7352 10.0576 77.0058C15.3282 82.2764 22.4743 85.2412 29.9281 85.2496H613.072C620.526 85.2412 627.672 82.2764 632.942 77.0058C638.213 71.7352 641.178 64.5892 641.186 57.1354V29.9281C641.178 22.4743 638.213 15.3282 632.942 10.0576C627.672 4.78702 620.526 1.82226 613.072 1.81381H29.9281Z"
            fill="black" />
        <path
            d="M461.618 26.3003H74.367C64.8505 26.3003 57.1357 34.015 57.1357 43.5316V43.5316C57.1357 53.0482 64.8505 60.7629 74.367 60.7629H461.618C471.135 60.7629 478.849 53.0482 478.849 43.5316C478.849 34.015 471.135 26.3003 461.618 26.3003Z"
            fill="#E6E6E6" />
        <path
            d="M512.405 177.43H125.154C115.638 177.43 107.923 185.145 107.923 194.661V194.662C107.923 204.178 115.638 211.893 125.154 211.893H512.405C521.922 211.893 529.637 204.178 529.637 194.661C529.637 185.145 521.922 177.43 512.405 177.43Z"
            fill="#B9FF66" />
        <path
            d="M512.405 287.004H125.154C115.638 287.004 107.923 294.719 107.923 304.236V304.236C107.923 313.752 115.638 321.467 125.154 321.467H512.405C521.922 321.467 529.637 313.752 529.637 304.236C529.637 294.719 521.922 287.004 512.405 287.004Z"
            fill="#E6E6E6" />
        <path
            d="M512.405 396.578H125.154C115.638 396.578 107.923 404.293 107.923 413.809V413.809C107.923 423.326 115.638 431.041 125.154 431.041H512.405C521.922 431.041 529.637 423.326 529.637 413.809C529.637 404.293 521.922 396.578 512.405 396.578Z"
            fill="#E6E6E6" />
        <path
            d="M596.294 228.332H46.7057C46.4652 228.332 46.2345 228.237 46.0645 228.067C45.8944 227.897 45.7988 227.666 45.7988 227.425C45.7988 227.185 45.8944 226.954 46.0645 226.784C46.2345 226.614 46.4652 226.519 46.7057 226.519H596.294C596.534 226.519 596.765 226.614 596.935 226.784C597.105 226.954 597.201 227.185 597.201 227.425C597.201 227.666 597.105 227.897 596.935 228.067C596.765 228.237 596.534 228.332 596.294 228.332Z"
            fill="black" />
        <path
            d="M596.294 337.951H46.7057C46.4652 337.951 46.2345 337.856 46.0645 337.686C45.8944 337.516 45.7988 337.285 45.7988 337.045C45.7988 336.804 45.8944 336.573 46.0645 336.403C46.2345 336.233 46.4652 336.138 46.7057 336.138H596.294C596.534 336.138 596.765 336.233 596.935 336.403C597.105 336.573 597.201 336.804 597.201 337.045C597.201 337.285 597.105 337.516 596.935 337.686C596.765 337.856 596.534 337.951 596.294 337.951Z"
            fill="black" />
        <path
            d="M596.294 447.57H46.7057C46.4652 447.57 46.2345 447.475 46.0645 447.305C45.8944 447.134 45.7988 446.904 45.7988 446.663C45.7988 446.423 45.8944 446.192 46.0645 446.022C46.2345 445.852 46.4652 445.756 46.7057 445.756H596.294C596.534 445.756 596.765 445.852 596.935 446.022C597.105 446.192 597.201 446.423 597.201 446.663C597.201 446.904 597.105 447.134 596.935 447.305C596.765 447.475 596.534 447.57 596.294 447.57Z"
            fill="black" />
        <path
            d="M533.778 42.1111C532.739 42.1111 531.85 41.7412 531.11 41.0014C530.37 40.2616 530 39.3722 530 38.3333V30.7778C530 29.7389 530.37 28.8495 531.11 28.1097C531.85 27.3699 532.739 27 533.778 27H560.222C561.261 27 562.15 27.3699 562.89 28.1097C563.63 28.8495 564 29.7389 564 30.7778V38.3333C564 39.3722 563.63 40.2616 562.89 41.0014C562.15 41.7412 561.261 42.1111 560.222 42.1111H533.778ZM533.778 38.3333H560.222V30.7778H533.778V38.3333ZM533.778 61C532.739 61 531.85 60.6301 531.11 59.8903C530.37 59.1505 530 58.2611 530 57.2222V49.6667C530 48.6278 530.37 47.7384 531.11 46.9986C531.85 46.2588 532.739 45.8889 533.778 45.8889H560.222C561.261 45.8889 562.15 46.2588 562.89 46.9986C563.63 47.7384 564 48.6278 564 49.6667V57.2222C564 58.2611 563.63 59.1505 562.89 59.8903C562.15 60.6301 561.261 61 560.222 61H533.778ZM533.778 57.2222H560.222V49.6667H533.778V57.2222Z"
            fill="black" />
    </g>
    <defs>
        <clipPath id="clip0_908_231">
            <rect width="643" height="447.57" fill="white" />
        </clipPath>
    </defs>
</svg>
    