<svg width="383" height="236" viewBox="0 0 383 236" fill="none" xmlns="http://www.w3.org/2000/svg">
    <path
        d="M382 185H1C0.734784 185 0.480444 184.895 0.292908 184.707C0.105371 184.52 0 184.265 0 184C0 183.735 0.105371 183.48 0.292908 183.293C0.480444 183.105 0.734784 183 1 183H382C382.265 183 382.52 183.105 382.707 183.293C382.895 183.48 383 183.735 383 184C383 184.265 382.895 184.52 382.707 184.707C382.52 184.895 382.265 185 382 185Z"
        fill="#3F3D56" />
    <path
        d="M199.059 54C213.97 54 226.059 41.9117 226.059 27C226.059 12.0883 213.97 0 199.059 0C184.147 0 172.059 12.0883 172.059 27C172.059 41.9117 184.147 54 199.059 54Z"
        fill="black" />
    <path d="M173.404 200.326L172.689 188.088L219.555 179.503L220.611 197.567L173.404 200.326Z"
        fill="#FFB8B8" />
    <path
        d="M175.675 179.141L177.055 202.745L162.194 203.614L159.945 165.149C161.897 165.034 163.852 165.306 165.699 165.947C167.545 166.589 169.248 167.588 170.708 168.887C172.169 170.186 173.359 171.761 174.212 173.52C175.064 175.28 175.561 177.19 175.675 179.141Z"
        fill="#2F2E41" />
    <path d="M193.789 200.214L186.004 209.685L145.768 184.166L157.257 170.188L193.789 200.214Z"
        fill="#FFB8B8" />
    <path
        d="M177.738 214.226L192.751 195.96L204.252 205.413L179.786 235.179C178.276 233.938 177.025 232.411 176.104 230.686C175.184 228.962 174.612 227.072 174.422 225.127C174.232 223.181 174.427 221.217 174.996 219.347C175.565 217.476 176.497 215.736 177.738 214.226Z"
        fill="black" />
    <path
        d="M171.387 156.17L166.068 181.249C165.945 181.826 165.952 182.424 166.088 182.998C166.223 183.573 166.484 184.11 166.852 184.572C167.22 185.033 167.686 185.408 168.215 185.668C168.745 185.929 169.326 186.069 169.916 186.078L222.214 186.922C222.803 186.931 223.388 186.81 223.925 186.568C224.462 186.325 224.939 185.967 225.322 185.518C225.704 185.069 225.983 184.542 226.138 183.973C226.293 183.404 226.32 182.808 226.217 182.227L221.643 156.305C221.48 155.379 220.995 154.54 220.275 153.936C219.554 153.331 218.644 153 217.704 153H175.3C174.383 153 173.495 153.315 172.782 153.892C172.07 154.469 171.577 155.273 171.387 156.17Z"
        fill="#2F2E41" />
    <path
        d="M180.06 165C180.06 165 129.06 133 119.06 150C114.06 158.5 116.56 166.75 120.31 172.875C123.79 178.452 128.785 182.923 134.712 185.766L176.06 206L191.06 190L181.06 181L180.06 165Z"
        fill="black" />
    <path
        d="M206.059 160C206.059 160 272.059 141 259.059 177C246.059 213 197.059 199 197.059 199L192.059 184L209.059 172L206.059 160Z"
        fill="black" />
    <path
        d="M199.397 57.7265C212.962 57.7265 223.958 46.7302 223.958 33.1655C223.958 19.6008 212.962 8.60449 199.397 8.60449C185.832 8.60449 174.836 19.6008 174.836 33.1655C174.836 46.7302 185.832 57.7265 199.397 57.7265Z"
        fill="#FFB8B8" />
    <path
        d="M200.685 163.969C190.479 163.814 180.325 162.477 170.428 159.982L170.135 159.902L156.43 96.8575C155.197 91.3175 156.035 85.5178 158.786 80.5538C161.538 75.5897 166.011 71.8049 171.363 69.9141C187.892 63.9833 205.909 63.6236 222.662 68.8897C228.284 70.7013 233.016 74.5657 235.914 79.7121C238.812 84.8584 239.663 90.9082 238.297 96.6544L222.989 159.85L222.773 159.952C216.412 162.966 208.456 163.969 200.685 163.969Z"
        fill="#CCCCCC" />
    <path
        d="M182.274 168.866C182.772 167.483 183.566 166.226 184.603 165.183C185.639 164.14 186.891 163.337 188.271 162.831C189.651 162.324 191.126 162.126 192.59 162.251C194.055 162.376 195.475 162.821 196.749 163.554L223.736 140.129L226.177 158.538L200.176 177.96C198.803 180.019 196.722 181.503 194.328 182.131C191.934 182.758 189.392 182.486 187.186 181.365C184.979 180.244 183.26 178.352 182.355 176.049C181.45 173.745 181.421 171.19 182.274 168.866Z"
        fill="#95D2B3" />
    <path
        d="M208.012 173.976C207.572 173.975 207.136 173.911 206.715 173.785C206.032 173.586 205.407 173.227 204.892 172.737C204.376 172.247 203.986 171.641 203.753 170.969L200.495 161.74C200.19 160.887 200.152 159.962 200.384 159.087C200.617 158.211 201.11 157.427 201.798 156.838L238.566 134.764L224.072 70.1025L224.441 70.0137C224.591 69.9766 239.441 66.5967 245.527 82.8242C249.788 94.1895 265.558 118.901 264.446 135.601C264.234 138.941 262.903 142.112 260.668 144.603C258.432 147.094 255.422 148.759 252.124 149.328L210.735 173.041C209.956 173.645 208.998 173.974 208.012 173.976Z"
        fill="#CCCCCC" />
    <path
        d="M212.136 166.673C211.638 165.29 210.843 164.032 209.807 162.989C208.771 161.947 207.519 161.144 206.138 160.637C204.758 160.131 203.284 159.933 201.819 160.058C200.354 160.183 198.935 160.628 197.661 161.361L170.674 137.936L168.232 156.345L194.234 175.767C195.607 177.826 197.688 179.31 200.082 179.937C202.476 180.565 205.017 180.292 207.224 179.171C209.431 178.05 211.15 176.159 212.055 173.855C212.96 171.552 212.989 168.996 212.136 166.673Z"
        fill="#95D2B3" />
    <path
        d="M189.107 173.975C188.12 173.974 187.162 173.645 186.383 173.041L141.994 151.328C138.696 150.758 135.686 149.094 133.451 146.603C131.215 144.112 129.884 140.941 129.672 137.6C128.56 120.901 147.33 94.1894 151.591 82.8242C157.676 66.5966 172.527 69.9755 172.677 70.0136L173.046 70.1025L155.552 136.764L195.32 156.838C196.008 157.427 196.501 158.211 196.734 159.087C196.966 159.962 196.928 160.887 196.623 161.74L193.365 170.969C193.132 171.641 192.742 172.247 192.226 172.737C191.711 173.227 191.086 173.586 190.403 173.785C189.982 173.911 189.546 173.975 189.107 173.975Z"
        fill="#CCCCCC" />
    <path
        d="M242.058 183.5H153.059C151.336 183.498 149.683 182.812 148.465 181.594C147.246 180.375 146.561 178.723 146.559 177V128C146.561 126.277 147.246 124.625 148.465 123.406C149.683 122.188 151.336 121.502 153.059 121.5H242.058C243.782 121.502 245.434 122.188 246.652 123.406C247.871 124.625 248.557 126.277 248.559 128.001V176.999C248.557 178.723 247.871 180.375 246.652 181.594C245.434 182.812 243.781 183.498 242.058 183.5Z"
        fill="#95D2B3" stroke="black" />
    <path
        d="M197.559 158.5C200.872 158.5 203.559 155.814 203.559 152.5C203.559 149.186 200.872 146.5 197.559 146.5C194.245 146.5 191.559 149.186 191.559 152.5C191.559 155.814 194.245 158.5 197.559 158.5Z"
        fill="black" />
    <path
        d="M174.59 32.1657C173.134 28.4734 175.523 24.0733 179.066 22.2847C182.609 20.4961 186.884 20.8363 190.674 22.0151C193.859 23.0057 196.844 24.5409 199.951 25.7535C203.014 27.111 206.36 27.7069 209.704 27.4904C213.018 27.1161 216.317 25.2576 217.673 22.2104C219.079 19.0518 218.122 15.1973 215.958 12.5017C213.654 9.89562 210.673 7.97963 207.346 6.96683C200.038 4.3924 191.598 4.31714 184.814 8.05933C178.03 11.8015 173.419 19.7696 174.821 27.3894"
        fill="black" />
    <path
        d="M32.6621 173.319C33.8976 160.013 37.3098 147.001 42.7626 134.801C44.2824 131.406 45.9551 128.086 47.7808 124.841C47.8723 124.671 47.8944 124.472 47.8423 124.287C47.7902 124.101 47.668 123.943 47.5015 123.845C47.335 123.748 47.1372 123.719 46.9498 123.765C46.7625 123.811 46.6002 123.927 46.4972 124.09C39.858 135.911 35.2067 148.743 32.7294 162.073C32.0403 165.795 31.5224 169.544 31.1756 173.319C31.0875 174.271 32.5746 174.265 32.6621 173.319Z"
        fill="#525252" />
    <path
        d="M60.2956 117.81C60.2956 122.733 56.3045 126.724 51.3812 126.724C46.4579 126.724 42.4668 122.733 42.4668 117.81C42.4668 112.887 46.4579 108.896 51.3812 108.896C56.3045 108.896 60.2956 112.887 60.2956 117.81Z"
        fill="#B9FF66" stroke="black" />
    <path
        d="M33.625 173.569C34.4265 164.937 36.6402 156.495 40.1776 148.581C41.1636 146.378 42.2487 144.224 43.4331 142.119C43.4925 142.009 43.5068 141.88 43.473 141.759C43.4392 141.639 43.3599 141.536 43.2519 141.473C43.1439 141.41 43.0156 141.391 42.8941 141.421C42.7725 141.451 42.6673 141.526 42.6005 141.632C38.2933 149.301 35.2758 157.625 33.6686 166.273C33.2216 168.688 32.8856 171.12 32.6606 173.569C32.6035 174.186 33.5682 174.183 33.625 173.569Z"
        fill="#525252" />
    <path
        d="M51.3772 137.558C51.3772 140.655 48.8666 143.165 45.7697 143.165C42.6727 143.165 40.1621 140.655 40.1621 137.558C40.1621 134.461 42.6727 131.95 45.7697 131.95C48.8666 131.95 51.3772 134.461 51.3772 137.558Z"
        fill="#B9FF66" stroke="black" />
    <path
        d="M32.4082 172.992C27.7311 165.693 24.2844 157.675 22.2058 149.259C21.6285 146.916 21.1593 144.551 20.7982 142.162C20.7773 142.039 20.7093 141.928 20.6086 141.854C20.5078 141.78 20.3822 141.747 20.2582 141.764C20.1341 141.781 20.0215 141.845 19.9439 141.943C19.8663 142.041 19.8298 142.166 19.8422 142.29C21.1628 150.986 23.9037 159.406 27.9553 167.213C29.0881 169.392 30.3189 171.516 31.6478 173.585C31.9827 174.107 32.7409 173.511 32.4082 172.992Z"
        fill="#525252" />
    <path
        d="M25.4417 137.129C25.4417 140.226 22.9311 142.737 19.8341 142.737C16.7372 142.737 14.2266 140.226 14.2266 137.129C14.2266 134.032 16.7372 131.521 19.8341 131.521C22.9311 131.521 25.4417 134.032 25.4417 137.129Z"
        fill="#B9FF66" stroke="black" />
    <path
        d="M13.6582 178.396V166.396C13.6595 165.202 14.1341 164.059 14.9777 163.215C15.8213 162.371 16.9651 161.897 18.1582 161.896H46.1582C47.3513 161.897 48.4951 162.371 49.3387 163.215C50.1823 164.059 50.6569 165.202 50.6582 166.396V178.396C50.6569 179.589 50.1823 180.732 49.3387 181.576C48.4951 182.42 47.3513 182.894 46.1582 182.896H18.1582C16.9651 182.894 15.8213 182.42 14.9777 181.576C14.1341 180.732 13.6595 179.589 13.6582 178.396Z"
        fill="black" />
    <path
        d="M314.41 192.4C314.41 198.978 309.078 201.967 302.501 201.967C295.924 201.967 290.592 198.978 290.592 192.4C290.592 185.823 293.238 178.149 302.501 180.796C311.763 176.826 314.41 185.823 314.41 192.4Z"
        fill="#FF6584" />
    <path
        d="M301.92 183.877C301.457 183.878 301.009 183.71 300.661 183.404C300.313 183.099 300.088 182.677 300.029 182.218C299.634 178.937 297.461 172.51 296.545 169.899L296.545 169.899C296.452 169.639 296.424 169.361 296.462 169.088C296.5 168.815 296.604 168.556 296.765 168.332C296.918 168.132 297.113 167.967 297.335 167.847C297.557 167.727 297.802 167.656 298.053 167.638C298.305 167.62 298.558 167.655 298.795 167.742C299.032 167.828 299.247 167.964 299.428 168.14C299.59 168.309 299.715 168.51 299.795 168.729C299.876 168.949 299.91 169.183 299.896 169.416C299.717 172.767 302.159 178.181 303.631 181.11C303.77 181.387 303.84 181.692 303.835 182.001C303.829 182.311 303.749 182.614 303.6 182.885C303.452 183.156 303.24 183.387 302.982 183.558C302.724 183.729 302.429 183.835 302.122 183.866C302.055 183.874 301.987 183.877 301.92 183.877Z"
        fill="#3F3D56" />
    <path
        d="M310.733 176.486C314.867 173.102 311.623 166.178 306.449 167.507C305.753 167.673 305.111 168.016 304.586 168.501C301.412 171.499 300.92 179.17 300.92 179.17C300.92 179.17 306.524 179.93 310.733 176.486Z"
        fill="#B9FF66" />
</svg>
    